<svg xmlns="http://www.w3.org/2000/svg" width="1500" height="450" viewBox="0 0 1500 450" version="1.1"><path d="M 439.713 87.091 C 397.369 93.286, 365.307 128.923, 363.322 172 C 361.645 208.371, 381.849 241.467, 415.156 256.911 C 428.531 263.112, 435.237 264.470, 452.500 264.470 C 469.713 264.470, 476.474 263.109, 489.673 256.991 C 500.094 252.160, 505.805 248.244, 514.362 240.061 C 526.384 228.565, 533.903 216.206, 538.553 200.297 C 541.779 189.260, 542.818 173.381, 541.038 162.309 C 538.426 146.060, 530.105 128.182, 519.808 116.694 L 515.500 111.887 500.098 127.358 L 484.696 142.828 487.646 146.664 C 495.008 156.236, 498 164.533, 498 175.379 C 498 209.330, 462.812 231.211, 432.267 216.254 C 420.926 210.701, 411.749 199.642, 408.490 187.600 C 401.417 161.473, 418.581 135.391, 445.806 130.895 L 453 129.707 453 107.853 L 453 86 449.250 86.122 C 447.188 86.189, 442.896 86.625, 439.713 87.091 M 141 162.754 L 141 236 163.473 236 L 185.945 236 186.223 222.082 L 186.500 208.165 208.373 234.582 C 220.403 249.112, 230.592 261, 231.016 261 C 231.440 261, 242.072 248.803, 254.643 233.895 L 277.500 206.789 277.766 234.395 L 278.032 262 300.516 262 L 323 262 323 175.881 L 323 89.762 298.250 113.801 C 284.637 127.023, 271.025 140.387, 268 143.500 C 264.975 146.613, 255.383 155.954, 246.683 164.259 L 230.867 179.358 185.933 134.433 L 141 89.508 141 162.754 M 582 163 L 582 236 604 236 L 626 236 626 214 C 626 201.900, 626.233 192, 626.519 192 C 627.003 192, 704.823 255.878, 709.750 260.320 C 712 262.349, 712 262.349, 712 176.674 L 712 91 690.014 91 L 668.027 91 667.764 123.578 L 667.500 156.155 625.500 123.121 C 602.400 104.952, 583.163 90.067, 582.750 90.043 C 582.337 90.019, 582 122.850, 582 163 M 759 129.929 L 759 170 782 170 L 805 170 805 149.897 L 805 129.794 817.250 130.156 C 828.463 130.487, 830.050 130.779, 836 133.599 C 844.390 137.577, 848.446 141.076, 853.208 148.444 C 858.852 157.175, 861.418 166.435, 861.401 178 C 861.366 201.329, 849.986 218.643, 831.530 223.450 C 826.733 224.700, 819.130 225, 792.290 225 L 759 225 759 243.500 L 759 262 793.428 262 C 830.976 262, 838.831 261.327, 852.500 256.938 C 864.162 253.194, 872.665 248.151, 881.729 239.603 C 894.690 227.379, 903.156 211.659, 906.555 193.500 C 908.986 180.514, 908.120 161.695, 904.531 149.500 C 896.183 121.137, 875.797 100.916, 847.444 92.877 C 839.924 90.744, 837.352 90.604, 799.250 90.241 L 759 89.859 759 129.929 M 951 176.019 L 951 262.038 973.750 261.769 L 996.500 261.500 996.487 243.250 C 996.480 233.213, 996.368 194.625, 996.237 157.500 L 996 90 973.500 90 L 951 90 951 176.019 M 1106.751 126.329 C 1089.641 159.338, 1062.349 211.624, 1043.372 247.750 L 1035.886 262 1059.738 262 L 1083.590 262 1091.045 248.323 C 1095.145 240.801, 1099.850 232.132, 1101.500 229.060 C 1114.871 204.162, 1125.512 185.003, 1125.961 185.015 C 1126.257 185.023, 1135.885 202.348, 1147.356 223.515 L 1168.212 262 1191.680 262 L 1215.147 262 1207.662 247.750 C 1203.546 239.912, 1183.682 201.550, 1163.522 162.500 C 1143.361 123.450, 1126.559 91.198, 1126.183 90.829 C 1125.807 90.460, 1117.063 106.435, 1106.751 126.329 M 1261 176 L 1261 262 1310.500 262 L 1360 262 1360 243.500 L 1360 225 1333.500 225 L 1307 225 1307 157.500 L 1307 90 1284 90 L 1261 90 1261 176 M 142 306 L 142 311 150.500 311 L 159 311 159 338 L 159 365 165.500 365 L 172 365 172 338 L 172 311 180.500 311 L 189 311 189 306 L 189 301 165.500 301 L 142 301 142 306 M 376 332.916 L 376 365 382.500 365 L 389 365 389 352.500 C 389 340, 389 340, 391.766 340 C 394.241 340, 395.316 341.313, 402 352.500 L 409.468 365 416.234 365 C 419.955 365, 423 364.650, 423 364.223 C 423 363.795, 419.675 358.105, 415.612 351.579 L 408.223 339.713 413.362 337.106 C 420.153 333.662, 422.967 328.796, 422.967 320.500 C 422.967 312.696, 420.098 307.434, 413.970 304.003 C 409.783 301.659, 408.439 301.479, 392.750 301.166 L 376 300.831 376 332.916 M 854.945 314.707 C 857.620 322.293, 862.684 336.600, 866.197 346.500 L 872.584 364.500 880.934 364.500 L 889.285 364.500 896.738 343.500 C 900.837 331.950, 905.906 317.644, 908.004 311.708 L 911.817 300.916 904.790 301.208 L 897.763 301.500 889.868 324.500 C 885.526 337.150, 881.702 348.175, 881.371 349 C 881.038 349.826, 877.077 339.492, 872.554 326 L 864.340 301.500 857.210 301.207 L 850.080 300.914 854.945 314.707 M 1098 333 L 1098 365 1117 365 L 1136 365 1136 359.500 L 1136 354 1123.500 354 L 1111 354 1111 346.033 L 1111 338.066 1122.250 337.783 L 1133.500 337.500 1133.500 332.500 L 1133.500 327.500 1122.250 327.217 L 1111 326.934 1111 318.967 L 1111 311 1123.500 311 L 1136 311 1136 306 L 1136 301 1117 301 L 1098 301 1098 333 M 1325 333.024 L 1325 365.047 1342.250 364.774 L 1359.500 364.500 1359.805 359.750 L 1360.110 355 1349.055 355 L 1338 355 1338 328 L 1338 301 1331.500 301 L 1325 301 1325 333.024 M 629.172 304.710 C 626.428 311.651, 607 364.099, 607 364.567 C 607 364.855, 610.037 364.958, 613.750 364.796 C 620.499 364.500, 620.499 364.500, 622.623 358.500 L 624.747 352.500 637.620 352.500 L 650.492 352.500 652.616 358.500 C 654.740 364.500, 654.740 364.500, 661.370 364.796 C 665.016 364.958, 668 364.709, 668 364.241 C 668 363.773, 662.898 349.690, 656.662 332.945 L 645.325 302.500 637.800 302.210 C 630.387 301.925, 630.259 301.962, 629.172 304.710 M 389 321.397 L 389 331 396.050 331 C 403.419 331, 408.269 329.346, 409.379 326.455 C 410.645 323.156, 409.982 317.200, 408.088 314.861 C 406.399 312.774, 405.180 312.459, 397.588 312.147 L 389 311.795 389 321.397 M 633.231 328.323 C 630.894 335.020, 628.986 340.837, 628.991 341.250 C 628.996 341.663, 633.016 342, 637.925 342 L 646.850 342 642.360 329.269 C 639.891 322.266, 637.782 316.449, 637.675 316.341 C 637.567 316.234, 635.567 321.625, 633.231 328.323" stroke="none" fill="#ffffff" fill-rule="evenodd"/><path d="M 626 61.809 L 626 123.617 646.750 139.883 L 667.500 156.149 667.764 123.574 L 668.027 91 690.014 91 L 712 91 712 176.674 C 712 262.349, 712 262.349, 709.750 260.320 C 704.823 255.878, 627.003 192, 626.519 192 C 626.233 192, 626 201.931, 626 214.069 L 626 236.137 572.995 235.415 L 519.989 234.694 513.745 240.654 C 505.781 248.255, 499.886 252.256, 489.673 256.991 C 476.474 263.109, 469.713 264.470, 452.500 264.470 C 435.237 264.470, 428.531 263.112, 415.156 256.911 C 405.539 252.451, 396.427 246.167, 390.042 239.592 L 385.584 235 354.292 235 L 323 235 323 248.500 L 323 262 300.500 262 L 278 262 278 248.500 L 278 235 265.750 235.027 L 253.500 235.054 242.653 248.027 C 236.687 255.162, 231.461 261, 231.039 261 C 230.617 261, 225.518 255.262, 219.707 248.250 L 209.142 235.500 104.571 235.177 L 0 234.855 0 342.427 L 0 450 379.500 450 L 759 450 759 337.500 L 759 225 792.290 225 C 829.184 225, 833.477 224.469, 842.279 218.821 C 862.507 205.841, 867.892 171.163, 853.208 148.444 C 848.446 141.076, 844.390 137.577, 836 133.599 C 830.050 130.779, 828.463 130.487, 817.250 130.156 L 805 129.794 805 149.897 L 805 170 782 170 L 759 170 759 129.929 L 759 89.859 799.250 90.241 C 837.352 90.604, 839.924 90.744, 847.444 92.877 C 875.757 100.905, 895.912 120.865, 904.619 149.500 C 907.137 157.781, 907.357 159.859, 907.371 175.500 C 907.389 194.945, 906 201.871, 899.323 215.625 C 897.220 219.956, 895.350 223.838, 895.167 224.250 C 894.983 224.662, 907.471 225, 922.917 225 L 951 225 951 157.500 L 951 90 973.500 90 L 996 90 996 157.500 L 996 225 1025.750 224.981 L 1055.500 224.962 1090.500 157.599 C 1109.750 120.550, 1125.725 90.422, 1126 90.648 C 1126.275 90.875, 1142.031 121.084, 1161.012 157.780 L 1195.525 224.500 1228.262 224.764 L 1261 225.027 1261 157.514 L 1261 90 1284 90 L 1307 90 1307 157.500 L 1307 225 1403.500 225 L 1500 225 1500 112.500 L 1500 0 1063 0 L 626 0 626 61.809 M 1114.726 204.666 C 1108.826 215.482, 1104.158 224.491, 1104.353 224.686 C 1104.547 224.881, 1114.424 224.918, 1126.302 224.770 L 1147.897 224.500 1137.199 204.769 C 1131.314 193.917, 1126.265 185.029, 1125.977 185.019 C 1125.689 185.009, 1120.626 193.850, 1114.726 204.666 M 142 306 L 142 311 150.500 311 L 159 311 159 338 L 159 365 165.500 365 L 172 365 172 338 L 172 311 180.500 311 L 189 311 189 306 L 189 301 165.500 301 L 142 301 142 306 M 376 332.916 L 376 365 382.500 365 L 389 365 389 352.500 C 389 340, 389 340, 391.766 340 C 394.241 340, 395.316 341.313, 402 352.500 L 409.468 365 416.234 365 C 419.955 365, 423 364.650, 423 364.223 C 423 363.795, 419.675 358.105, 415.612 351.579 L 408.223 339.713 413.362 337.106 C 420.153 333.662, 422.967 328.796, 422.967 320.500 C 422.967 312.696, 420.098 307.434, 413.970 304.003 C 409.783 301.659, 408.439 301.479, 392.750 301.166 L 376 300.831 376 332.916 M 629.172 304.710 C 626.428 311.651, 607 364.099, 607 364.567 C 607 364.855, 610.037 364.958, 613.750 364.796 C 620.499 364.500, 620.499 364.500, 622.623 358.500 L 624.747 352.500 637.620 352.500 L 650.492 352.500 652.616 358.500 C 654.740 364.500, 654.740 364.500, 661.370 364.796 C 665.016 364.958, 668 364.709, 668 364.241 C 668 363.773, 662.898 349.690, 656.662 332.945 L 645.325 302.500 637.800 302.210 C 630.387 301.925, 630.259 301.962, 629.172 304.710 M 389 321.397 L 389 331 396.050 331 C 403.419 331, 408.269 329.346, 409.379 326.455 C 410.645 323.156, 409.982 317.200, 408.088 314.861 C 406.399 312.774, 405.180 312.459, 397.588 312.147 L 389 311.795 389 321.397 M 633.231 328.323 C 630.894 335.020, 628.986 340.837, 628.991 341.250 C 628.996 341.663, 633.016 342, 637.925 342 L 646.850 342 642.360 329.269 C 639.891 322.266, 637.782 316.449, 637.675 316.341 C 637.567 316.234, 635.567 321.625, 633.231 328.323" stroke="none" fill="#e43c3c" fill-rule="evenodd"/><path d="M 0 117.500 L 0 235 70.500 235 L 141 235 141 162.254 L 141 89.508 185.986 134.486 L 230.973 179.464 236.736 173.864 C 239.906 170.783, 260.500 150.662, 282.500 129.149 L 322.500 90.034 322.757 162.517 L 323.013 235 354.004 235 L 384.996 235 380.351 228.750 C 374.574 220.977, 368.607 208.498, 365.784 198.284 C 364.019 191.896, 363.636 187.809, 363.650 175.500 C 363.665 162.107, 363.955 159.553, 366.355 151.659 C 377.517 114.955, 407.733 90.007, 445.286 86.488 L 453 85.765 453 107.736 L 453 129.707 445.806 130.895 C 430.226 133.468, 417.929 142.624, 411.297 156.590 C 400.768 178.761, 410.137 205.419, 432.267 216.254 C 462.812 231.211, 498 209.330, 498 175.379 C 498 164.533, 495.008 156.236, 487.646 146.664 L 484.696 142.828 500.098 127.358 L 515.500 111.887 519.808 116.694 C 530.105 128.182, 538.426 146.060, 541.038 162.309 C 544.637 184.696, 538.355 210.102, 524.611 228.750 L 520.004 235 551.002 235 L 582 235 582 162.500 C 582 122.625, 582.265 90, 582.588 90 C 582.911 90, 592.249 97.107, 603.338 105.793 C 614.427 114.479, 624.063 121.931, 624.750 122.352 C 625.745 122.962, 626 110.548, 626 61.559 L 626 0 313 0 L 0 0 0 117.500 M 265.848 220.617 L 254.195 234.500 265.731 234.783 C 272.076 234.938, 277.445 234.888, 277.663 234.670 C 277.880 234.453, 277.933 228.078, 277.779 220.504 L 277.500 206.734 265.848 220.617 M 186 221.300 L 186 235 197.059 235 C 205.639 235, 207.950 234.720, 207.369 233.750 C 206.734 232.690, 189.383 211.380, 186.850 208.550 C 186.378 208.023, 186 213.698, 186 221.300 M 891.496 229.006 C 887.240 235.147, 875.151 246.070, 867.958 250.274 C 860.083 254.877, 846.198 259.453, 835.678 260.914 C 831.292 261.523, 812.729 262, 793.428 262 L 759 262 759 356 L 759 450 1129.500 450 L 1500 450 1500 337.500 L 1500 225 1430 225 L 1360 225 1360 243.500 L 1360 262 1310.500 262 L 1261 262 1261 243.500 L 1261 225 1228.419 225 L 1195.839 225 1205.460 243.500 L 1215.081 262 1191.653 262 L 1168.224 262 1158.297 243.750 L 1148.370 225.500 1125.935 225.500 L 1103.500 225.500 1093.515 243.750 L 1083.529 262 1059.746 262 L 1035.962 262 1045.567 243.500 L 1055.171 225 1026.108 225 L 997.045 225 996.773 243.250 L 996.500 261.500 973.750 261.769 L 951 262.038 951 243.519 L 951 225 922.636 225 L 894.272 225 891.496 229.006 M 854.945 314.707 C 857.620 322.293, 862.684 336.600, 866.197 346.500 L 872.584 364.500 880.934 364.500 L 889.285 364.500 896.738 343.500 C 900.837 331.950, 905.906 317.644, 908.004 311.708 L 911.817 300.916 904.790 301.208 L 897.763 301.500 889.868 324.500 C 885.526 337.150, 881.702 348.175, 881.371 349 C 881.038 349.826, 877.077 339.492, 872.554 326 L 864.340 301.500 857.210 301.207 L 850.080 300.914 854.945 314.707 M 1098 333 L 1098 365 1117 365 L 1136 365 1136 359.500 L 1136 354 1123.500 354 L 1111 354 1111 346.033 L 1111 338.066 1122.250 337.783 L 1133.500 337.500 1133.500 332.500 L 1133.500 327.500 1122.250 327.217 L 1111 326.934 1111 318.967 L 1111 311 1123.500 311 L 1136 311 1136 306 L 1136 301 1117 301 L 1098 301 1098 333 M 1325 333.024 L 1325 365.047 1342.250 364.774 L 1359.500 364.500 1359.805 359.750 L 1360.110 355 1349.055 355 L 1338 355 1338 328 L 1338 301 1331.500 301 L 1325 301 1325 333.024" stroke="none" fill="#2c3494" fill-rule="evenodd"/></svg>